<?xml version="1.0" encoding="UTF-8"?><!DOCTYPE svg PUBLIC "-//W3C//DTD SVG 1.1//EN" "http://www.w3.org/Graphics/SVG/1.1/DTD/svg11.dtd"><svg xmlns="http://www.w3.org/2000/svg" xmlns:xlink="http://www.w3.org/1999/xlink" version="1.1" id="Layer_1" x="0px" y="0px" viewBox="0 0 48 48" xml:space="preserve"><g fill="none" stroke-width="2" stroke-miterlimit="10"><circle stroke="#F3AF1C" cx="23.3" cy="15.2" r="4.1"/><ellipse transform="matrix(0.5983 -0.8013 0.8013 0.5983 -25.2529 18.7485)" stroke="#E72E29" cx="6.1" cy="34.6" rx="5.1" ry="3.7"/><path stroke="#E72E29" d="M9.4 30.1l4.1-5.5"/><path stroke="#34A0D9" d="M20.6 3.8S18 8.2 18.8 9c.8.7 4.5-2.6 4.5-2.6"/><path stroke="#A8A8A9" d="M46.1 10.1c-.3-1.1-1.4-1.7-2.5-1.3-.3.1-8.6 2.6-14.2 12.1-.2.3-.4.6-.5.9-1.7 2.5-3.9 3.8-6.2 3.8-2.5 0-5.2-1.6-6.5-4-.5-1-1.8-1.3-2.7-.7-1 .5-1.3 1.8-.7 2.7 2 3.6 6.1 6 10 6h.1c2 0 3.9-.6 5.6-1.7l3 2.5c-6.5 3.1-10.9 10.5-11.1 11-.5 1-.2 2.2.7 2.7.3.2.7.3 1 .3.7 0 1.4-.4 1.7-1 .1-.1 6.2-10.5 13.6-10.3.8 2.4 1 5.3 0 8.8-.3 1.1.3 2.1 1.4 2.4.2 0 .4.1.5.1.9 0 1.7-.6 1.9-1.5 1.4-4.9.8-9.1-.6-12.4 0-.1-.1-.2-.1-.3-1.7-3.7-4.6-6.4-7.1-8 4.7-7.5 11.3-9.5 11.4-9.6 1-.4 1.6-1.5 1.3-2.5z"/></g><metadata><rdf:RDF xmlns:rdf="http://www.w3.org/1999/02/22-rdf-syntax-ns#" xmlns:rdfs="http://www.w3.org/2000/01/rdf-schema#" xmlns:dc="http://purl.org/dc/elements/1.1/"><rdf:Description about="https://iconscout.com/legal#licenses" dc:publisher="Iconscout" dc:date="2018-05-23" dc:format="image/svg+xml" dc:language="en"><dc:creator><rdf:Bag><rdf:li>Creative Stall</rdf:li></rdf:Bag></dc:creator></rdf:Description></rdf:RDF></metadata></svg>